<?xml version="1.0" encoding="UTF-8"?>
<svg id="Layer_1" data-name="Layer 1" xmlns="http://www.w3.org/2000/svg" viewBox="0 0 150.19 150.3">
  <defs>
    <style>
      .cls-1 {
        fill: #fff;
      }

      .cls-2 {
        fill: none;
        stroke: #f1f2f2;
        stroke-linecap: round;
        stroke-miterlimit: 10;
        stroke-width: 5px;
      }

      .cls-3 {
        fill: #414042;
      }
    </style>
  </defs>
  <path class="cls-1" d="M33.07,78.33c5.53-7.94,11.48-13.07,15.61-16.13,4.54-3.36,9.91-7.33,18.19-9.29,8.71-2.06,15.69-.72,17.29-.39,7.96,1.65,13.07,5.52,18.45,9.55,4.29,3.22,10.44,8.56,16.26,16.77-5.49,7.06-10.96,12.05-15.1,15.35-6.42,5.14-10.82,8.67-17.94,10.58-1.69,.46-9.88,2.53-19.87-.13-8.07-2.15-13.14-6.27-18.45-10.58-3.98-3.23-9.37-8.31-14.45-15.74Z"/>
  <path class="cls-3" d="M92.1,78.26c.16,9-7.2,16.59-16.26,16.65-9.13,.05-16.61-7.58-16.45-16.65,.16-8.85,7.54-16.12,16.45-16.06,8.84,.05,16.1,7.29,16.26,16.06Z"/>
  <path class="cls-1" d="M68.3,78.07c.23-3.76,3.36-7.1,7.35-7.16,3.91-.06,7.07,3.02,7.55,6.58,.58,4.3-2.85,8.67-7.35,8.71-4.31,.04-7.81-3.89-7.55-8.13Z"/>
  <line class="cls-2" x1="35.59" y1="53.01" x2="40.67" y2="58.09"/>
  <line class="cls-2" x1="116.42" y1="52.35" x2="111.34" y2="57.43"/>
  <line class="cls-2" x1="98.93" y1="39.33" x2="95.65" y2="45.72"/>
  <line class="cls-2" x1="52.91" y1="39.33" x2="56.2" y2="45.72"/>
  <line class="cls-2" x1="75.97" y1="33.3" x2="75.97" y2="40.49"/>
  <line class="cls-2" x1="35.33" y1="103.86" x2="40.41" y2="98.77"/>
  <line class="cls-2" x1="116.16" y1="104.51" x2="111.08" y2="99.43"/>
  <line class="cls-2" x1="98.68" y1="117.53" x2="95.4" y2="111.14"/>
  <line class="cls-2" x1="52.66" y1="117.53" x2="55.94" y2="111.14"/>
  <line class="cls-2" x1="75.72" y1="123.56" x2="75.72" y2="116.38"/>
</svg>