<?xml version="1.0" encoding="UTF-8"?>
<svg id="Layer_1" data-name="Layer 1" xmlns="http://www.w3.org/2000/svg" viewBox="0 0 150.19 150.3">
  <defs>
    <style>
      .cls-1 {
        fill: #fff;
      }

      .cls-2 {
        fill: #414042;
      }
    </style>
  </defs>
  <path class="cls-1" d="M105.17,62.15c.2-1.11,.52-3.34,2.44-5.2h6.19c.52,1.12,1.24,2.9,1.68,5.16,.48,2.48,.42,4.43,.39,5.29-.47,12.43,1.37,24.07-2.06,46.06-.23,1.49-.61,3.83-1.16,6.71-.29,1.11-1.17,1.93-2.19,2.06-1.31,.17-2.64-.82-2.97-2.32-.37-1.7-1.04-5.07-1.18-6.6-2.45-26.59-1.62-40.63-1.49-45.55"/>
  <path class="cls-1" d="M114.33,28.22c-3.99,2.59-7.03,5.27-8.32,7.19-2.06,3.06-4.62,6.86-3.63,11.27,.22,.99,1.34,5.22,5.23,6.53,3.93,1.33,7.37-1.46,7.65-1.69,2.35-1.98,3.24-4.95,3-7.35-.29-2.92-2.04-2.91-2.76-6-1.1-4.74,2.15-8.4,.53-9.87-.34-.31-.32-.35-1.69-.08Z"/>
  <path class="cls-1" d="M57.49,35.44c-10.69,1.19-17.42,8.13-17.42,8.13-8.51,8.78-8.23,21.14-8.13,25.68,.44,19.49,13.41,38.98,32.13,47.35,4.97,2.23,12.92,6.21,23.1,4.52,7.32-1.22,12.57-4.75,15.35-6.97-1.11-8.67-1.77-18.31-2.06-28.77-.26-9.16,.04-14.4,.55-21.44,.49-1.78,1-3.81,.64-4.84-1.96-5.52-8.02-8.67-15.12-7.91-4.71,.5-6.45,4.26-11.21,5.72-2.92,.9-6.52-.77-8.1-4.04-1.05-2.17-.51-6.81-1.6-11.87-.67-3.08-1.46-3.93-1.81-4.26-.92-.86-2.59-1.71-6.32-1.29Z"/>
  <path class="cls-2" d="M81.16,74.41c-2.27-4.63-.87-11.46,3.1-12.9,3.49-1.27,7.94,2.02,9.81,5.55,2.3,4.35,1.75,11.09-2.06,12.9-3.57,1.7-8.83-1.46-10.84-5.55Z"/>
  <path class="cls-2" d="M85.62,98.8c3.16-.07,5.7,2.63,5.81,5.68,.1,3.11-2.36,5.99-5.55,6.06-3.3,.07-5.9-2.9-5.81-6.06,.09-2.91,2.46-5.61,5.55-5.68Z"/>
  <path class="cls-2" d="M65.87,91.83c2.97,.1,5.48,2.52,5.55,5.55,.07,3.12-2.48,5.65-5.42,5.81-3.33,.18-6.29-2.72-6.06-6.06,.2-2.98,2.86-5.4,5.94-5.29Z"/>
  <path class="cls-2" d="M51.94,75.18c3.2-.22,5.85,2.35,6.19,5.29,.39,3.39-2.35,6.72-5.81,6.71-3.08,0-5.7-2.67-5.81-5.81-.11-3.08,2.22-5.98,5.42-6.19Z"/>
  <path class="cls-2" d="M48.97,54.28c3.23-.18,6,2.6,5.94,5.81-.06,2.9-2.43,5.45-5.42,5.55-3.16,.11-5.8-2.56-5.81-5.68,0-2.94,2.35-5.51,5.29-5.68Z"/>
</svg>