<?xml version="1.0" encoding="UTF-8"?>
<svg id="Layer_1" data-name="Layer 1" xmlns="http://www.w3.org/2000/svg" viewBox="0 0 150.19 150.3">
  <defs>
    <style>
      .cls-1 {
        fill: #fff;
      }

      .cls-2 {
        fill: none;
        stroke: #fff;
        stroke-linecap: round;
        stroke-miterlimit: 10;
        stroke-width: 5px;
      }

      .cls-3 {
        fill: #414042;
      }
    </style>
  </defs>
  <line class="cls-2" x1="43.53" y1="80.92" x2="48.66" y2="78.4"/>
  <line class="cls-2" x1="113.93" y1="80.92" x2="108.8" y2="78.4"/>
  <line class="cls-2" x1="115.69" y1="56.41" x2="110.07" y2="57.45"/>
  <line class="cls-2" x1="41.78" y1="56.41" x2="47.4" y2="57.45"/>
  <line class="cls-2" x1="53.85" y1="36.94" x2="58.12" y2="40.74"/>
  <line class="cls-2" x1="103.63" y1="36.94" x2="99.36" y2="40.74"/>
  <line class="cls-2" x1="78.75" y1="27.21" x2="78.75" y2="32.92"/>
  <path class="cls-1" d="M78.79,103.92h-14.58l-.39-8.65c-.25-1.32-.73-3.35-1.68-5.68-2.12-5.21-4.75-7.4-6.71-10.58,0,0-3.64-5.93-3.1-14.19,.67-10.16,10.25-23.92,25.55-24.13,15.27-.21,25.39,13.22,26.19,23.35,.47,5.89-2.09,12.09-3.23,14.84-1.32,3.19-4.17,5.43-6.32,10.71-.95,2.33-1.5,4.35-1.81,5.68v8.65c-4.65,0-9.29,0-13.94,0Z"/>
  <path class="cls-3" d="M72.85,98.76h3.35c.1-3.88-.19-9.02-1.68-14.84-1-3.92-2.33-7.25-3.61-9.94,.64,.58,3.18,2.74,7.1,2.84,3.91,.1,6.56-1.91,7.23-2.45-1.16,2.67-2.31,5.82-3.23,9.42-1.47,5.77-1.91,10.93-1.94,15.03h3.42c-.84-5.87,.27-9.79,1.48-12.32,.72-1.5,2.98-5.64,4.45-10.84,.2-.72,.56-2.05-.06-3.29-.87-1.73-3.33-2.62-5.35-2.32-2.79,.41-3.42,2.8-5.76,3.13-3.12,.43-3.82-3.61-7.46-3.25-1.43,.14-3.02,.93-3.68,2.26-.7,1.41-.63,2.99-.33,3.81,1.3,3.52,3.44,7.13,4.91,10.58,1.1,2.6,1.6,6.55,1.16,12.19Z"/>
  <path class="cls-1" d="M64.14,107.7h28.58v4.77h-28.58v-4.77Z"/>
  <path class="cls-1" d="M68.79,116.87h19.16c-1.65,3.56-5.07,5.95-8.9,6.19-4.29,.27-8.38-2.19-10.26-6.19Z"/>
</svg>