<?xml version="1.0" encoding="UTF-8"?>
<svg id="Layer_1" data-name="Layer 1" xmlns="http://www.w3.org/2000/svg" viewBox="0 0 150.19 150.3">
  <defs>
    <style>
      .cls-1 {
        fill: #fff;
      }

      .cls-2 {
        fill: #414042;
      }
    </style>
  </defs>
  <path class="cls-1" d="M54.42,25.86c-3.06,1.86-8.38,5.68-12.39,12.39-5.69,9.52-4.85,18.45-4.62,22.32,1.23,20.68,17.16,34.16,20.36,36.65l2.58,.13c-2.4-4.46-6.14-12.87-8-17.55-2.61-6.54-3.89-8.91-4.9-15.65-.72-4.82-2.05-13.95-.13-22.28,1.68-7.32,4.83-12.73,7.1-16Z"/>
  <path class="cls-1" d="M95.77,25.86c3.06,1.86,8.38,5.68,12.39,12.39,5.69,9.52,4.85,18.45,4.62,22.32-1.23,20.68-17.16,34.16-20.36,36.65l-2.58,.13c2.4-4.46,6.14-12.87,8-17.55,2.61-6.54,3.89-8.91,4.9-15.65,.72-4.82,2.05-13.95,.13-22.28-1.68-7.32-4.83-12.73-7.1-16Z"/>
  <path class="cls-1" d="M67.33,21.99c-2.43,.86-6.71,2.78-10.19,6.97-2.59,3.11-4.05,6.64-5.03,11.48-.65,3.19-3.13,16.9,3.48,36.39,1.72,5.07,4.7,12.42,9.94,20.65l2.19,.13c-1.25-6.5-2.36-13.48-3.23-20.9-1.48-12.68-1.75-21.18-1.81-24.9-.16-10.09,.49-14.54,1.03-17.42,1-5.26,2.46-9.5,3.61-12.39Z"/>
  <path class="cls-1" d="M83.16,21.73c2.43,.86,6.71,2.78,10.19,6.97,2.59,3.11,4.05,6.64,5.03,11.48,.65,3.19,3.13,16.9-3.48,36.39-1.72,5.07-4.7,12.42-9.94,20.65l-2.19,.13c1.25-6.5,2.36-13.48,3.23-20.9,1.48-12.68,1.75-21.18,1.81-24.9,.16-10.09-.49-14.54-1.03-17.42-1-5.26-2.46-9.5-3.61-12.39Z"/>
  <path class="cls-1" d="M72.62,21.73c.53-.59,1.25-1.21,2.19-1.29,.24-.02,1.41-.09,2.97,1.42,3.57,3.47,4.26,9.29,4.26,9.29,2.2,18.74,1.81,22.71,1.81,22.71-1.27,12.71-2.94,27.36-5.29,43.74h-6.97c-2.16-17.11-3.61-31.27-4.84-43.61,0,0-.48-4.81,1.74-23.23,0,0,.62-5.16,4.13-9.03Z"/>
  <path class="cls-1" d="M60.62,101.86h28.65c-1.25,1.51-2.49,3.01-3.74,4.52v5.3l2.71,1.41v10.07c-.29,.95-.95,2.64-2.45,4.26-1.22,1.31-2.51,2.05-3.35,2.45h-14.59c-.8-.31-2.18-.97-3.47-2.32-1.51-1.58-2.09-3.28-2.32-4.13v-10.19l2.71-1.68v-5.42l-4.13-4.26Z"/>
  <path class="cls-2" d="M68.24,106.75h14.06v4.26h-14.07v-4.26Z"/>
</svg>