<?xml version="1.0" encoding="UTF-8"?>
<svg id="Layer_1" data-name="Layer 1" xmlns="http://www.w3.org/2000/svg" viewBox="0 0 150.19 150.3">
  <defs>
    <style>
      .cls-1 {
        fill: #fff;
      }

      .cls-2 {
        fill: none;
        stroke: #fff;
        stroke-miterlimit: 10;
        stroke-width: 3px;
      }
    </style>
  </defs>
  <path class="cls-1" d="M117.6,77.69h8.52v8.52h-8.71l.2-8.52Z"/>
  <path class="cls-1" d="M33.7,77.69h8.52v8.52h-8.71l.2-8.52Z"/>
  <path class="cls-1" d="M33.7,35.98h8.52v8.52h-8.71l.2-8.52Z"/>
  <path class="cls-1" d="M75.5,35.98h8.52v8.52h-8.71l.2-8.52Z"/>
  <path class="cls-1" d="M117.6,35.98h8.52v8.52h-8.71l.2-8.52Z"/>
  <line class="cls-2" x1="40.76" y1="40.24" x2="118.95" y2="40.24"/>
  <path class="cls-2" d="M38.05,81.47c.46-22.96,19.55-41.43,42.19-41.23,22.22,.2,40.76,18.32,41.42,40.84"/>
  <path class="cls-1" d="M74.24,52.53h3.1v26.32c-2.61,1.3-4.09,4.06-3.68,6.77,.45,3.05,3.23,5.7,6.58,5.42,3.24-.27,5.58-3.16,5.61-6.19,.03-2.55-1.57-4.94-4.06-6v-26.32h2.97c4.26,11.59,8.51,23.18,12.77,34.77,.23,1.3,.4,3.02,.26,5.03-.15,2.12-.6,3.87-1.03,5.16l-2.84,8.52h-28.52c-.73-2.8-2.11-5.59-2.84-8.39-.58-2.22-.71-3.8-.77-6.19-.06-2.01,.31-3.66,.65-4.77,3.94-11.38,7.87-22.75,11.81-34.13Z"/>
  <path class="cls-1" d="M64.5,117.63v-6.07c.49-.49,.99-.99,1.48-1.48h27.68c.59,.59,1.18,1.18,1.78,1.78v5.26c-.64,.64-1.28,1.28-1.93,1.93h-27.6c-.47-.47-.95-.94-1.42-1.41Z"/>
</svg>