<?xml version="1.0" encoding="UTF-8"?>
<svg id="Layer_1" data-name="Layer 1" xmlns="http://www.w3.org/2000/svg" viewBox="0 0 150.19 150.3">
  <defs>
    <style>
      .cls-1 {
        fill: #fff;
      }

      .cls-2 {
        fill: #414042;
      }
    </style>
  </defs>
  <path class="cls-1" d="M82.04,122.66c-4.43,2.97-8.86,5.94-13.29,8.9-.05,.49-.07,1.43,.52,1.94,0,0,.61,.53,1.94,.26,2.82-.57,28.95-18.04,34.58-21.81,4.69,2.06,9.38,4.13,14.06,6.19,.76,.55,1.79,.4,2.32-.26,.46-.57,.47-1.43,0-2.06-4.9-2.37-9.81-4.73-14.71-7.1V43.43c-.3-.83-1.07-1.4-1.94-1.42-.81-.02-1.56,.43-1.94,1.16v12c-12.73-5.72-25.46-11.44-38.19-17.16v-13.16c-.09-.94-.81-1.69-1.68-1.81-1-.13-2,.59-2.19,1.68v13.42c-6.45,4.17-12.9,8.34-19.35,12.51v28.65c-3.74-1.72-7.48-3.44-11.23-5.16-.83-.79-2.15-.7-2.84,.13-.65,.78-.56,2.01,.26,2.71,4.56,2.11,9.12,4.22,13.68,6.32v18.97c-3.74,2.49-7.48,4.99-11.23,7.48-.36,.84-.13,1.79,.52,2.32,.76,.62,1.97,.54,2.71-.26,3.23-2.06,6.45-4.13,9.68-6.19,12.77,5.68,25.55,11.35,38.32,17.03Z"/>
  <path class="cls-2" d="M46.94,51.69c5.59-3.53,11.18-7.05,16.77-10.58,12.73,5.59,25.46,11.18,38.19,16.77-5.46,3.7-10.92,7.4-16.39,11.1-12.86-5.76-25.72-11.53-38.58-17.29Z"/>
  <path class="cls-2" d="M87.98,71.56c5.12-3.23,10.24-6.45,15.35-9.68v46.97c-5.12,3.35-10.24,6.71-15.35,10.06v-47.35Z"/>
</svg>