<?xml version="1.0" encoding="UTF-8"?>
<svg id="Layer_1" data-name="Layer 1" xmlns="http://www.w3.org/2000/svg" viewBox="0 0 150.19 150.3">
  <defs>
    <style>
      .cls-1 {
        fill: #fff;
      }

      .cls-2 {
        fill: none;
        stroke: #fff;
        stroke-linecap: round;
        stroke-miterlimit: 10;
        stroke-width: 4px;
      }

      .cls-3 {
        fill: #414042;
      }
    </style>
  </defs>
  <path class="cls-1" d="M78.04,63.35c7.08-7.08,14.15-14.15,21.23-21.23l12.52,12.52c-7.01,7.01-14.02,14.02-21.03,21.03,10.39,10.39,20.78,20.78,31.16,31.16l-16.52,16.52c-10.41-10.41-20.82-20.82-31.23-31.23-5.07,5.07-10.15,10.15-15.22,15.22-4.07-4.07-8.13-8.13-12.2-12.2,4.92-4.92,9.85-9.85,14.77-14.77l-31.49-31.49c5.62-5.62,11.23-11.23,16.85-16.85,10.39,10.44,20.77,20.87,31.16,31.31Z"/>
  <path class="cls-3" d="M35.72,48.38c3.59-3.59,7.18-7.18,10.78-10.78,23.25,23.25,46.49,46.49,69.74,69.74l-10.97,10.97c-23.18-23.31-46.37-46.62-69.55-69.94Z"/>
  <line class="cls-2" x1="42.17" y1="54.31" x2="44.82" y2="51.67"/>
  <line class="cls-2" x1="56.49" y1="68.64" x2="59.14" y2="65.99"/>
  <line class="cls-2" x1="63.51" y1="75.65" x2="66.15" y2="73.01"/>
  <line class="cls-2" x1="77.99" y1="90.14" x2="80.64" y2="87.49"/>
  <line class="cls-2" x1="85.19" y1="97.33" x2="87.83" y2="94.68"/>
  <line class="cls-2" x1="99.45" y1="111.59" x2="102.09" y2="108.94"/>
  <line class="cls-2" x1="92.41" y1="104.55" x2="97.96" y2="99.01"/>
  <line class="cls-2" x1="49.3" y1="61.44" x2="54.85" y2="55.89"/>
  <line class="cls-2" x1="70.74" y1="82.88" x2="76.28" y2="77.33"/>
  <path class="cls-1" d="M102.43,39.47l11.87,11.87c2.31-3.33,2.02-7.81-.65-10.71-2.83-3.08-7.66-3.63-11.23-1.16Z"/>
  <path class="cls-1" d="M55.85,109.67c-3.94-3.94-7.87-7.87-11.81-11.81-1.74,4.92-3.48,9.85-5.23,14.77-.01,.05-.27,.97,.39,1.68,.42,.46,1.07,.66,1.68,.52,4.99-1.72,9.98-3.44,14.97-5.16Z"/>
</svg>