<?xml version="1.0" encoding="UTF-8"?>
<svg id="Layer_1" data-name="Layer 1" xmlns="http://www.w3.org/2000/svg" viewBox="0 0 150.19 150.3">
  <defs>
    <style>
      .cls-1 {
        fill: #fff;
      }
    </style>
  </defs>
  <path class="cls-1" d="M74.37,29.86c29.9,.02,51.53,.03,53.46,0,.22,0,.9-.02,1.78,.16,1.38,.28,2.42,.85,3.07,1.29-16.72,16.72-33.43,33.43-50.15,50.15-.93,.71-3.31,2.32-6.7,2.5-5.08,.27-8.5-2.88-9.13-3.47-16.37-16.37-32.73-32.73-49.1-49.1,.45-.25,.99-.5,1.62-.73,.69-.25,1.32-.39,1.86-.48l53.3-.32Z"/>
  <path class="cls-1" d="M93.59,80.37c12.88,12.88,25.76,25.76,38.64,38.64-.28,.24-.65,.5-1.09,.73-1.17,.59-2.28,.63-2.91,.61H23.21c-.58,.09-1.38,.14-2.3,0-1.55-.24-2.67-.91-3.27-1.33,12.82-12.82,25.64-25.64,38.46-38.46,3.79,6.77,10.97,10.97,18.71,10.96,7.81,0,15.02-4.29,18.78-11.14Z"/>
  <path class="cls-1" d="M99.16,75.04c12.9-12.9,25.8-25.8,38.7-38.7,.26,.59,.52,1.27,.73,2.06,.4,1.51,.47,2.86,.43,3.88V108.84c.04,.83-.01,1.96-.37,3.23-.18,.66-.42,1.22-.65,1.7-12.95-12.91-25.9-25.81-38.84-38.72Z"/>
  <path class="cls-1" d="M51.03,75.14c-12.9-12.9-25.8-25.8-38.7-38.7-.26,.59-.52,1.27-.73,2.06-.4,1.51-.47,2.86-.43,3.88V108.93c-.04,.83,.01,1.96,.37,3.23,.18,.66,.42,1.22,.65,1.7,12.95-12.91,25.9-25.81,38.84-38.72Z"/>
</svg>