<?xml version="1.0" encoding="UTF-8"?>
<svg id="Layer_1" data-name="Layer 1" xmlns="http://www.w3.org/2000/svg" viewBox="0 0 150.19 150.3">
  <defs>
    <style>
      .cls-1 {
        fill: #fff;
      }
    </style>
  </defs>
  <path class="cls-1" d="M107.4,21.47c-9.9-14.64-28.83-16.23-32.39-16.47-2.41,.07-19.27,.83-30.06,14.79-9.33,12.07-10.41,29.18-2.71,43.48,10.06,15.79,20.13,31.57,30.19,47.36,.13,.15,1.25,1.48,3.1,1.42,1.7-.06,2.69-1.24,2.84-1.42,10.19-15.96,20.38-31.92,30.58-47.87,6.98-10.93,7.4-28.06-1.55-41.29Zm-32.06,39.8c-9.83-.03-17.75-8.3-17.55-18,.19-9.43,8-17.25,17.55-17.29,9.61-.03,17.52,7.84,17.67,17.36,.16,9.73-7.84,17.97-17.67,17.93Z"/>
  <path class="cls-1" d="M66.05,114.14c.33,.43,3.85,4.86,9.77,4.65,5.4-.2,8.49-4.11,8.9-4.65,6.1-9.45,12.19-18.9,18.29-28.35,7.62,2.74,25.19,9.82,24.97,18.19-.29,11.06-31.47,19.19-41.71,20.42-5.16,.62-10.55,.65-10.55,.65s-6.8,.04-13.26-.85c-10.15-1.39-39.7-9.76-39.77-20.61-.06-8.79,19.23-15.72,25.16-17.71,6.06,9.42,12.13,18.84,18.19,28.26Z"/>
</svg>