<?xml version="1.0" encoding="UTF-8"?>
<svg id="Layer_1" data-name="Layer 1" xmlns="http://www.w3.org/2000/svg" viewBox="0 0 150.19 150.3">
  <defs>
    <style>
      .cls-1 {
        fill: #fff;
      }
    </style>
  </defs>
  <path class="cls-1" d="M101.61,36.96c-1.26,0-2.28-1.02-2.28-2.28v-1.42c-.02-.82-.18-4.15-2.8-6.92-3.29-3.46-7.75-3.19-8.35-3.14h-27.19c-.83,.02-3.98,.19-6.71,2.66-3.11,2.83-3.33,6.56-3.35,7.26v1.63c0,1.26-1.02,2.28-2.28,2.28H25.05c-1.55,0-2.65,1.52-2.16,3l11.74,35.21c.05,.31,.29,1.44,1.31,2.32,1.07,.93,2.29,.97,2.6,.97,5.63,0,11.26-.03,16.9-.04,1.26,0,2.27-1.02,2.27-2.28v-1.68c.04-.28,.22-1.28,1.12-2.06,.69-.58,1.43-.73,1.75-.76h28.55c.29,.01,1.28,.08,2.15,.87,1.04,.93,1.12,2.18,1.14,2.41v1.32c0,1.26,1.02,2.28,2.28,2.28h17.33c.32-.03,1.42-.19,2.37-1.12,.83-.84,1.04-1.8,1.1-2.25,.02-.13,.05-.26,.09-.38,3.9-11.62,7.79-23.24,11.69-34.87,.49-1.48-.6-3-2.16-3h-23.52Zm-11.4,0h-30.16c-1.26,0-2.28-1.02-2.28-2.28v-1.56c0-.22,.03-.44,.09-.65,.13-.42,.4-1.06,1-1.6,.8-.72,1.69-.86,1.98-.89h28.28c.33,.04,1.41,.19,2.32,1.1,.52,.51,.79,1.08,.92,1.48,.08,.22,.11,.45,.11,.69v1.43c0,1.26-1.02,2.28-2.28,2.28Z"/>
  <path class="cls-1" d="M66.87,78.54h16.47c1.18,0,2.13,.95,2.13,2.13v2.62c0,1.18-.95,2.13-2.13,2.13h-16.45c-1.17,0-2.12-.95-2.13-2.12l-.02-2.62c0-1.18,.95-2.15,2.13-2.15Z"/>
  <path class="cls-1" d="M93.27,85.52h19.07c.86-.02,4-.19,6.68-2.62,1.88-1.71,2.6-3.69,2.88-4.62,3.39-10.13,6.77-20.26,10.16-30.39,.41-1.21,2.2-.92,2.2,.36V116.08c.03,.73,.1,4.51-2.81,7.65-3.2,3.45-7.46,3.41-8.11,3.39H26.53c-.81,0-4.22-.11-7.14-2.77-3.15-2.87-3.42-6.61-3.46-7.34V48.25c0-1.28,1.8-1.57,2.2-.36,3.4,10.16,6.79,20.33,10.19,30.49,.3,.93,1.1,2.96,3.08,4.67,2.57,2.22,5.45,2.47,6.37,2.52h18.79c.62,0,1.13,.51,1.13,1.13v2.52c.02,.27,.12,1.36,1.03,2.26,.93,.92,2.04,1.01,2.31,1.03h28.04c.26,0,1.41-.05,2.36-.98,1.09-1.07,1.04-2.46,1.03-2.67v-2.38s.04-.47,.05-.48c.02-.02,.13-.26,.14-.27,.05-.05,.21-.1,.26-.15,.02-.02,.33-.03,.35-.05Z"/>
</svg>